M48
; DRILL file {KiCad 7.0.8-dirty} date Thu Nov 16 23:27:07 2023
; FORMAT={-:-/ absolute / metric / decimal}
; #@! TF.CreationDate,2023-11-16T23:27:07-03:00
; #@! TF.GenerationSoftware,Kicad,Pcbnew,7.0.8-dirty
; #@! TF.FileFunction,Plated,1,2,PTH
FMAT,2
METRIC
; #@! TA.AperFunction,Plated,PTH,ComponentDrill
T1C0.750
; #@! TA.AperFunction,Plated,PTH,ComponentDrill
T2C0.800
; #@! TA.AperFunction,Plated,PTH,ComponentDrill
T3C0.900
; #@! TA.AperFunction,Plated,PTH,ComponentDrill
T4C1.000
; #@! TA.AperFunction,Plated,PTH,ComponentDrill
T5C1.100
; #@! TA.AperFunction,Plated,PTH,ComponentDrill
T6C1.200
%
G90
G05
T1
X157.948Y-79.209
X159.218Y-79.209
X160.488Y-79.209
X162.966Y-96.62
X162.966Y-97.89
X162.966Y-99.16
T2
X145.398Y-105.089
X145.398Y-112.709
X146.518Y-68.329
X147.296Y-116.84
X147.826Y-95.74
X147.826Y-98.24
X149.826Y-112.19
X149.836Y-116.84
X150.126Y-73.24
X150.126Y-75.74
X152.326Y-112.19
X152.376Y-116.84
X152.726Y-89.64
X152.776Y-94.04
X154.138Y-68.329
X155.226Y-89.64
X155.276Y-94.04
X158.936Y-116.84
X160.926Y-102.64
X161.426Y-83.88
X161.426Y-91.5
X161.476Y-116.84
X163.426Y-102.64
X164.016Y-116.84
X166.426Y-83.88
X166.426Y-91.5
X167.548Y-72.289
X167.548Y-79.909
X168.646Y-108.24
X168.646Y-115.86
X169.416Y-94.39
X169.466Y-103.29
X169.516Y-99.14
X171.248Y-72.289
X171.248Y-79.909
X172.376Y-108.33
X172.376Y-115.95
X176.286Y-108.33
X176.286Y-115.95
X177.036Y-94.39
X177.086Y-103.29
X177.136Y-99.14
T3
X139.108Y-107.334
X139.108Y-109.874
T4
X139.638Y-74.749
X177.451Y-67.945
X177.451Y-73.025
X181.376Y-108.14
X181.476Y-102.99
X182.531Y-67.945
X182.531Y-73.025
X182.726Y-59.54
X185.826Y-96.99
X185.876Y-103.24
X185.926Y-108.14
X186.826Y-63.54
X186.968Y-75.019
T5
X134.288Y-59.079
X139.666Y-81.209
X141.908Y-59.079
X147.286Y-81.209
X149.016Y-107.49
X149.166Y-102.79
X156.166Y-72.84
X156.636Y-107.49
X156.786Y-102.79
X158.656Y-68.11
X161.196Y-68.11
X163.736Y-68.11
X163.786Y-72.84
T6
X135.598Y-79.939
X135.626Y-74.89
X137.825Y-64.237
X137.825Y-69.317
X138.458Y-86.969
X138.458Y-92.049
X138.458Y-97.129
X138.458Y-102.209
X178.313Y-84.94
X185.813Y-84.94
X186.876Y-59.44
X187.026Y-70.39
T0
M30
