G04 #@! TF.GenerationSoftware,KiCad,Pcbnew,7.0.8-dirty*
G04 #@! TF.CreationDate,2023-11-16T23:24:39-03:00*
G04 #@! TF.ProjectId,Fonte 0-24V,466f6e74-6520-4302-9d32-34562e6b6963,rev?*
G04 #@! TF.SameCoordinates,Original*
G04 #@! TF.FileFunction,Copper,L1,Top*
G04 #@! TF.FilePolarity,Positive*
%FSLAX46Y46*%
G04 Gerber Fmt 4.6, Leading zero omitted, Abs format (unit mm)*
G04 Created by KiCad (PCBNEW 7.0.8-dirty) date 2023-11-16 23:24:39*
%MOMM*%
%LPD*%
G01*
G04 APERTURE LIST*
G04 Aperture macros list*
%AMRoundRect*
0 Rectangle with rounded corners*
0 $1 Rounding radius*
0 $2 $3 $4 $5 $6 $7 $8 $9 X,Y pos of 4 corners*
0 Add a 4 corners polygon primitive as box body*
4,1,4,$2,$3,$4,$5,$6,$7,$8,$9,$2,$3,0*
0 Add four circle primitives for the rounded corners*
1,1,$1+$1,$2,$3*
1,1,$1+$1,$4,$5*
1,1,$1+$1,$6,$7*
1,1,$1+$1,$8,$9*
0 Add four rect primitives between the rounded corners*
20,1,$1+$1,$2,$3,$4,$5,0*
20,1,$1+$1,$4,$5,$6,$7,0*
20,1,$1+$1,$6,$7,$8,$9,0*
20,1,$1+$1,$8,$9,$2,$3,0*%
G04 Aperture macros list end*
G04 #@! TA.AperFunction,ComponentPad*
%ADD10C,2.000000*%
G04 #@! TD*
G04 #@! TA.AperFunction,ComponentPad*
%ADD11R,2.200000X2.200000*%
G04 #@! TD*
G04 #@! TA.AperFunction,ComponentPad*
%ADD12O,2.200000X2.200000*%
G04 #@! TD*
G04 #@! TA.AperFunction,ComponentPad*
%ADD13C,2.500000*%
G04 #@! TD*
G04 #@! TA.AperFunction,ComponentPad*
%ADD14O,2.000000X2.000000*%
G04 #@! TD*
G04 #@! TA.AperFunction,ComponentPad*
%ADD15R,2.000000X2.000000*%
G04 #@! TD*
G04 #@! TA.AperFunction,ComponentPad*
%ADD16C,1.600000*%
G04 #@! TD*
G04 #@! TA.AperFunction,ComponentPad*
%ADD17RoundRect,0.250000X-1.550000X0.650000X-1.550000X-0.650000X1.550000X-0.650000X1.550000X0.650000X0*%
G04 #@! TD*
G04 #@! TA.AperFunction,ComponentPad*
%ADD18O,3.600000X1.800000*%
G04 #@! TD*
G04 #@! TA.AperFunction,ComponentPad*
%ADD19R,1.800000X1.800000*%
G04 #@! TD*
G04 #@! TA.AperFunction,ComponentPad*
%ADD20R,1.050000X1.500000*%
G04 #@! TD*
G04 #@! TA.AperFunction,ComponentPad*
%ADD21O,1.050000X1.500000*%
G04 #@! TD*
G04 #@! TA.AperFunction,ComponentPad*
%ADD22R,2.400000X2.400000*%
G04 #@! TD*
G04 #@! TA.AperFunction,ComponentPad*
%ADD23C,2.400000*%
G04 #@! TD*
G04 #@! TA.AperFunction,ComponentPad*
%ADD24C,1.800000*%
G04 #@! TD*
G04 #@! TA.AperFunction,ComponentPad*
%ADD25R,1.500000X1.050000*%
G04 #@! TD*
G04 #@! TA.AperFunction,ComponentPad*
%ADD26O,1.500000X1.050000*%
G04 #@! TD*
G04 #@! TA.AperFunction,Conductor*
%ADD27C,2.000000*%
G04 #@! TD*
G04 #@! TA.AperFunction,Conductor*
%ADD28C,2.500000*%
G04 #@! TD*
G04 #@! TA.AperFunction,Conductor*
%ADD29C,0.500000*%
G04 #@! TD*
G04 #@! TA.AperFunction,Conductor*
%ADD30C,1.000000*%
G04 #@! TD*
G04 #@! TA.AperFunction,Conductor*
%ADD31C,0.800000*%
G04 #@! TD*
G04 APERTURE END LIST*
D10*
X186826000Y-63540000D03*
D11*
X156786000Y-102790000D03*
D12*
X149166000Y-102790000D03*
D13*
X187026000Y-70390000D03*
D10*
X167547777Y-79909180D03*
D14*
X167547777Y-72289180D03*
D15*
X158656000Y-68110000D03*
D14*
X161196000Y-68110000D03*
X163736000Y-68110000D03*
D15*
X147826000Y-95740000D03*
D10*
X147826000Y-98240000D03*
X145397777Y-105089180D03*
D14*
X145397777Y-112709180D03*
D11*
X156636000Y-107490000D03*
D12*
X149016000Y-107490000D03*
D11*
X163786000Y-72840000D03*
D12*
X156166000Y-72840000D03*
D10*
X169416000Y-94390000D03*
D14*
X177036000Y-94390000D03*
D10*
X181376000Y-108140000D03*
D16*
X152776000Y-94040000D03*
X155276000Y-94040000D03*
D10*
X182726000Y-59540000D03*
D13*
X135597777Y-79939180D03*
D10*
X149826000Y-112190000D03*
X152326000Y-112190000D03*
X177136000Y-99140000D03*
D14*
X169516000Y-99140000D03*
D17*
X138457777Y-86969180D03*
D18*
X138457777Y-92049180D03*
X138457777Y-97129180D03*
X138457777Y-102209180D03*
D11*
X139666000Y-81209180D03*
D12*
X147286000Y-81209180D03*
D10*
X185826000Y-96990000D03*
X185876000Y-103240000D03*
X172376000Y-108330000D03*
D14*
X172376000Y-115950000D03*
D19*
X139107777Y-107334180D03*
D10*
X139107777Y-109874180D03*
X161426000Y-91500000D03*
D14*
X161426000Y-83880000D03*
D15*
X177451000Y-67945000D03*
D14*
X177451000Y-73025000D03*
X182531000Y-73025000D03*
X182531000Y-67945000D03*
D16*
X152726000Y-89640000D03*
X155226000Y-89640000D03*
D10*
X154137777Y-68329180D03*
D14*
X146517777Y-68329180D03*
D10*
X163426000Y-102640000D03*
X160926000Y-102640000D03*
D20*
X157947777Y-79209180D03*
D21*
X159217777Y-79209180D03*
X160487777Y-79209180D03*
D10*
X185926000Y-108140000D03*
D15*
X150126000Y-73240000D03*
D10*
X150126000Y-75740000D03*
X181476000Y-102990000D03*
X177086000Y-103290000D03*
D14*
X169466000Y-103290000D03*
D17*
X137825277Y-64236680D03*
D18*
X137825277Y-69316680D03*
D22*
X178313246Y-84940000D03*
D23*
X185813246Y-84940000D03*
D10*
X168646000Y-108240000D03*
D14*
X168646000Y-115860000D03*
D10*
X186967777Y-75019180D03*
X176286000Y-108330000D03*
D14*
X176286000Y-115950000D03*
D11*
X141907777Y-59079180D03*
D12*
X134287777Y-59079180D03*
D24*
X147296000Y-116840000D03*
X149836000Y-116840000D03*
X152376000Y-116840000D03*
D13*
X135626000Y-74890000D03*
D25*
X162966000Y-96620000D03*
D26*
X162966000Y-97890000D03*
X162966000Y-99160000D03*
D10*
X171247777Y-79909180D03*
D14*
X171247777Y-72289180D03*
D24*
X164016000Y-116840000D03*
X161476000Y-116840000D03*
X158936000Y-116840000D03*
D13*
X186876000Y-59440000D03*
D10*
X166426000Y-91500000D03*
D14*
X166426000Y-83880000D03*
D10*
X139637777Y-74749180D03*
D27*
X166668597Y-68110000D02*
X167557777Y-68999180D01*
D28*
X176327777Y-78598620D02*
X176327777Y-77279180D01*
X171247777Y-72289180D02*
X167547777Y-72289180D01*
D29*
X177451000Y-67945000D02*
X177451000Y-68665000D01*
D28*
X177086000Y-103290000D02*
X177086000Y-99290000D01*
X181317777Y-96949180D02*
X179076957Y-99190000D01*
D27*
X167547777Y-69009180D02*
X167547777Y-72289180D01*
D28*
X179076957Y-99190000D02*
X177186000Y-99190000D01*
D29*
X182986957Y-70740000D02*
X186826000Y-66900957D01*
D28*
X179418597Y-84940000D02*
X181317777Y-86839180D01*
X181317777Y-86839180D02*
X181317777Y-96949180D01*
X177186000Y-99190000D02*
X177136000Y-99140000D01*
D27*
X167557777Y-68999180D02*
X167547777Y-69009180D01*
D28*
X178313246Y-84940000D02*
X179418597Y-84940000D01*
X178313246Y-80584089D02*
X176327777Y-78598620D01*
X176327777Y-77279180D02*
X176237777Y-77279180D01*
X177086000Y-99290000D02*
X177186000Y-99190000D01*
X177451000Y-67945000D02*
X175591957Y-67945000D01*
X175591957Y-67945000D02*
X171247777Y-72289180D01*
D29*
X179526000Y-70740000D02*
X182986957Y-70740000D01*
D28*
X176237777Y-77279180D02*
X171247777Y-72289180D01*
X178313246Y-84940000D02*
X178313246Y-80584089D01*
D27*
X163736000Y-68110000D02*
X166668597Y-68110000D01*
D29*
X177451000Y-68665000D02*
X179526000Y-70740000D01*
X186826000Y-66900957D02*
X186826000Y-63540000D01*
D28*
X187026000Y-74960957D02*
X186967777Y-75019180D01*
X187026000Y-70390000D02*
X187026000Y-74960957D01*
X184907777Y-77079180D02*
X180097777Y-77079180D01*
X180097777Y-75671777D02*
X177451000Y-73025000D01*
X186967777Y-75019180D02*
X184907777Y-77079180D01*
X180097777Y-77079180D02*
X180097777Y-75671777D01*
X182726000Y-59540000D02*
X182726000Y-67750000D01*
X182726000Y-67750000D02*
X182531000Y-67945000D01*
X182826000Y-59440000D02*
X182726000Y-59540000D01*
X186876000Y-59440000D02*
X182826000Y-59440000D01*
D30*
X158656000Y-73390560D02*
X157947777Y-74098783D01*
X157947777Y-74098783D02*
X157947777Y-79209180D01*
X158656000Y-68110000D02*
X158656000Y-73390560D01*
X145397777Y-111089180D02*
X145397777Y-112709180D01*
X144182777Y-109874180D02*
X145397777Y-111089180D01*
X139107777Y-109874180D02*
X144182777Y-109874180D01*
X172286000Y-115860000D02*
X172376000Y-115950000D01*
X164996000Y-115860000D02*
X164016000Y-116840000D01*
X164016000Y-116840000D02*
X161476000Y-116840000D01*
X176286000Y-115950000D02*
X172376000Y-115950000D01*
X168646000Y-115860000D02*
X172286000Y-115860000D01*
X168646000Y-115860000D02*
X164996000Y-115860000D01*
X156786000Y-103247403D02*
X159327777Y-105789180D01*
X159327777Y-105789180D02*
X170137777Y-105789180D01*
X170137777Y-105789180D02*
X171767777Y-104159180D01*
X156786000Y-102790000D02*
X156786000Y-103247403D01*
X171767777Y-104159180D02*
X171767777Y-84159180D01*
X171767777Y-84159180D02*
X171247777Y-83639180D01*
X171247777Y-79909180D02*
X167547777Y-79909180D01*
X171247777Y-83639180D02*
X171247777Y-79909180D01*
X169566000Y-99190000D02*
X169516000Y-99140000D01*
X161426000Y-91500000D02*
X166426000Y-91500000D01*
X169341000Y-99315000D02*
X169516000Y-99140000D01*
X169516000Y-103240000D02*
X169466000Y-103290000D01*
X162966000Y-99160000D02*
X162966000Y-102180000D01*
X159526000Y-99390000D02*
X160326000Y-98590000D01*
X154276000Y-109290000D02*
X155476000Y-110490000D01*
X154276000Y-100940000D02*
X154276000Y-109290000D01*
X163426000Y-102640000D02*
X168816000Y-102640000D01*
X161426000Y-93240000D02*
X160326000Y-94340000D01*
X161426000Y-91500000D02*
X161426000Y-93240000D01*
X152876000Y-119990000D02*
X152676000Y-119790000D01*
X169516000Y-99140000D02*
X169516000Y-103240000D01*
X162966000Y-99160000D02*
X160896000Y-99160000D01*
X148826000Y-119790000D02*
X147296000Y-118260000D01*
X160326000Y-94340000D02*
X160326000Y-98590000D01*
X155826000Y-99390000D02*
X154276000Y-100940000D01*
X161316000Y-91610000D02*
X161256000Y-91610000D01*
X155826000Y-99390000D02*
X159526000Y-99390000D01*
X161426000Y-91500000D02*
X161316000Y-91610000D01*
X147296000Y-118260000D02*
X147296000Y-116840000D01*
X160896000Y-99160000D02*
X160326000Y-98590000D01*
X155476000Y-117390000D02*
X152876000Y-119990000D01*
X168816000Y-102640000D02*
X169466000Y-103290000D01*
X162966000Y-102180000D02*
X163426000Y-102640000D01*
X152676000Y-119790000D02*
X148826000Y-119790000D01*
X155476000Y-110490000D02*
X155476000Y-117390000D01*
X158176000Y-82160957D02*
X159257777Y-81079180D01*
X152076000Y-99190000D02*
X153626000Y-97640000D01*
X149826000Y-112190000D02*
X149826000Y-110540000D01*
X153626000Y-97640000D02*
X156726000Y-97640000D01*
X159257777Y-81079180D02*
X159217777Y-81039180D01*
D31*
X159217777Y-79777658D02*
X159247777Y-79747658D01*
D30*
X149826000Y-112190000D02*
X149826000Y-116830000D01*
D31*
X159217777Y-81039180D02*
X159217777Y-79777658D01*
D30*
X158176000Y-96190000D02*
X158176000Y-82160957D01*
X152076000Y-108290000D02*
X152076000Y-99190000D01*
X149826000Y-110540000D02*
X152076000Y-108290000D01*
X149826000Y-116830000D02*
X149836000Y-116840000D01*
X156726000Y-97640000D02*
X158176000Y-96190000D01*
X163828597Y-72840000D02*
X163786000Y-72840000D01*
X168646000Y-108240000D02*
X172286000Y-108240000D01*
X173307777Y-83229180D02*
X173307777Y-78619180D01*
X173307777Y-78619180D02*
X171807777Y-77119180D01*
X163786000Y-77119180D02*
X163786000Y-72840000D01*
X176286000Y-108330000D02*
X172376000Y-108330000D01*
X174076000Y-83997403D02*
X173307777Y-83229180D01*
X176286000Y-108330000D02*
X176286000Y-107000000D01*
X176286000Y-107000000D02*
X174076000Y-104790000D01*
X163017777Y-79209180D02*
X163786000Y-78440957D01*
X160487777Y-79209180D02*
X163017777Y-79209180D01*
X163786000Y-78440957D02*
X163786000Y-77119180D01*
X172286000Y-108240000D02*
X172376000Y-108330000D01*
X171807777Y-77119180D02*
X163786000Y-77119180D01*
X174076000Y-104790000D02*
X174076000Y-83997403D01*
X162966000Y-96620000D02*
X163687777Y-95898223D01*
X163687777Y-94409180D02*
X163706957Y-94390000D01*
X163706957Y-94390000D02*
X169416000Y-94390000D01*
X166426000Y-83880000D02*
X161426000Y-83880000D01*
X163687777Y-95898223D02*
X163687777Y-94409180D01*
X168728597Y-83880000D02*
X169416000Y-84567403D01*
X166426000Y-83880000D02*
X168728597Y-83880000D01*
X169416000Y-84567403D02*
X169416000Y-94390000D01*
X185926000Y-108140000D02*
X181376000Y-108140000D01*
X138457777Y-97129180D02*
X142037777Y-97129180D01*
X177956820Y-111559180D02*
X160295180Y-111559180D01*
X150126000Y-101830000D02*
X150126000Y-97040000D01*
X156636000Y-107900000D02*
X156636000Y-107490000D01*
X150126000Y-97040000D02*
X148826000Y-95740000D01*
X143457777Y-95709180D02*
X143488597Y-95740000D01*
X148826000Y-95740000D02*
X147826000Y-95740000D01*
X149166000Y-102790000D02*
X150126000Y-101830000D01*
X160295180Y-111559180D02*
X156636000Y-107900000D01*
X143488597Y-95740000D02*
X147826000Y-95740000D01*
X181376000Y-108140000D02*
X177956820Y-111559180D01*
X142037777Y-97129180D02*
X143457777Y-95709180D01*
X142517777Y-102209180D02*
X145397777Y-105089180D01*
X138457777Y-102209180D02*
X142517777Y-102209180D01*
D27*
X149126000Y-73240000D02*
X150126000Y-73240000D01*
X150126000Y-73240000D02*
X155766000Y-73240000D01*
X147286000Y-81209180D02*
X147286000Y-75080000D01*
D28*
X154137777Y-70811777D02*
X156166000Y-72840000D01*
D27*
X147286000Y-75080000D02*
X149126000Y-73240000D01*
D28*
X147286000Y-86350000D02*
X147286000Y-80340000D01*
X154137777Y-68329180D02*
X154137777Y-70811777D01*
X150576000Y-89640000D02*
X147286000Y-86350000D01*
X152776000Y-89690000D02*
X152726000Y-89640000D01*
X152776000Y-94040000D02*
X152776000Y-89690000D01*
D27*
X155766000Y-73240000D02*
X156166000Y-72840000D01*
D28*
X152726000Y-89640000D02*
X150576000Y-89640000D01*
X139637777Y-81180957D02*
X139666000Y-81209180D01*
X138457777Y-82417403D02*
X139666000Y-81209180D01*
X139637777Y-74749180D02*
X139637777Y-81180957D01*
X138457777Y-86969180D02*
X138457777Y-82417403D01*
X140077777Y-66489180D02*
X141437777Y-66489180D01*
X143317777Y-68586890D02*
X143317777Y-89829180D01*
X141907777Y-59079180D02*
X141907777Y-60154180D01*
X141437777Y-66489180D02*
X141437777Y-66706890D01*
X137825277Y-64236680D02*
X140077777Y-66489180D01*
X143317777Y-89829180D02*
X141097777Y-92049180D01*
X141907777Y-60154180D02*
X137825277Y-64236680D01*
X138457777Y-92049180D02*
X141097777Y-92049180D01*
X141437777Y-66706890D02*
X143317777Y-68586890D01*
X134287777Y-70177734D02*
X135626000Y-71515957D01*
X135626000Y-71515957D02*
X137825277Y-69316680D01*
X135626000Y-74890000D02*
X135626000Y-71515957D01*
X134287777Y-59079180D02*
X134287777Y-70177734D01*
M02*
