%TF.GenerationSoftware,KiCad,Pcbnew,7.0.8-dirty*%
%TF.CreationDate,2023-11-16T23:26:40-03:00*%
%TF.ProjectId,Fonte 0-24V,466f6e74-6520-4302-9d32-34562e6b6963,rev?*%
%TF.SameCoordinates,Original*%
%TF.FileFunction,Drillmap*%
%TF.FilePolarity,Positive*%
%FSLAX45Y45*%
G04 Gerber Fmt 4.5, Leading zero omitted, Abs format (unit mm)*
G04 Created by KiCad (PCBNEW 7.0.8-dirty) date 2023-11-16 23:26:40*
%MOMM*%
%LPD*%
G01*
G04 APERTURE LIST*
%ADD10C,0.050000*%
%ADD11C,0.200000*%
%ADD12C,0.430000*%
G04 APERTURE END LIST*
D10*
X13124778Y-4339918D02*
X19134778Y-4339918D01*
X19134778Y-12303918D01*
X13124778Y-12303918D01*
X13124778Y-4339918D01*
D11*
D12*
X13687600Y-11444000D02*
X14117600Y-11874000D01*
X14117600Y-11444000D02*
X13687600Y-11874000D01*
X13714600Y-5045000D02*
X14144600Y-5475000D01*
X14144600Y-5045000D02*
X13714600Y-5475000D01*
X18087600Y-11444000D02*
X18517600Y-11874000D01*
X18517600Y-11444000D02*
X18087600Y-11874000D01*
X18103600Y-5045000D02*
X18533600Y-5475000D01*
X18533600Y-5045000D02*
X18103600Y-5475000D01*
D11*
X13383054Y-12617902D02*
X13383054Y-12417902D01*
X13383054Y-12417902D02*
X13430673Y-12417902D01*
X13430673Y-12417902D02*
X13459245Y-12427426D01*
X13459245Y-12427426D02*
X13478293Y-12446473D01*
X13478293Y-12446473D02*
X13487816Y-12465521D01*
X13487816Y-12465521D02*
X13497340Y-12503616D01*
X13497340Y-12503616D02*
X13497340Y-12532187D01*
X13497340Y-12532187D02*
X13487816Y-12570283D01*
X13487816Y-12570283D02*
X13478293Y-12589330D01*
X13478293Y-12589330D02*
X13459245Y-12608378D01*
X13459245Y-12608378D02*
X13430673Y-12617902D01*
X13430673Y-12617902D02*
X13383054Y-12617902D01*
X13583054Y-12617902D02*
X13583054Y-12484568D01*
X13583054Y-12522664D02*
X13592578Y-12503616D01*
X13592578Y-12503616D02*
X13602102Y-12494092D01*
X13602102Y-12494092D02*
X13621150Y-12484568D01*
X13621150Y-12484568D02*
X13640197Y-12484568D01*
X13706864Y-12617902D02*
X13706864Y-12484568D01*
X13706864Y-12417902D02*
X13697340Y-12427426D01*
X13697340Y-12427426D02*
X13706864Y-12436949D01*
X13706864Y-12436949D02*
X13716388Y-12427426D01*
X13716388Y-12427426D02*
X13706864Y-12417902D01*
X13706864Y-12417902D02*
X13706864Y-12436949D01*
X13830673Y-12617902D02*
X13811626Y-12608378D01*
X13811626Y-12608378D02*
X13802102Y-12589330D01*
X13802102Y-12589330D02*
X13802102Y-12417902D01*
X13935435Y-12617902D02*
X13916388Y-12608378D01*
X13916388Y-12608378D02*
X13906864Y-12589330D01*
X13906864Y-12589330D02*
X13906864Y-12417902D01*
X14164007Y-12617902D02*
X14164007Y-12417902D01*
X14164007Y-12417902D02*
X14230674Y-12560759D01*
X14230674Y-12560759D02*
X14297340Y-12417902D01*
X14297340Y-12417902D02*
X14297340Y-12617902D01*
X14478293Y-12617902D02*
X14478293Y-12513140D01*
X14478293Y-12513140D02*
X14468769Y-12494092D01*
X14468769Y-12494092D02*
X14449721Y-12484568D01*
X14449721Y-12484568D02*
X14411626Y-12484568D01*
X14411626Y-12484568D02*
X14392578Y-12494092D01*
X14478293Y-12608378D02*
X14459245Y-12617902D01*
X14459245Y-12617902D02*
X14411626Y-12617902D01*
X14411626Y-12617902D02*
X14392578Y-12608378D01*
X14392578Y-12608378D02*
X14383054Y-12589330D01*
X14383054Y-12589330D02*
X14383054Y-12570283D01*
X14383054Y-12570283D02*
X14392578Y-12551235D01*
X14392578Y-12551235D02*
X14411626Y-12541711D01*
X14411626Y-12541711D02*
X14459245Y-12541711D01*
X14459245Y-12541711D02*
X14478293Y-12532187D01*
X14573531Y-12484568D02*
X14573531Y-12684568D01*
X14573531Y-12494092D02*
X14592578Y-12484568D01*
X14592578Y-12484568D02*
X14630674Y-12484568D01*
X14630674Y-12484568D02*
X14649721Y-12494092D01*
X14649721Y-12494092D02*
X14659245Y-12503616D01*
X14659245Y-12503616D02*
X14668769Y-12522664D01*
X14668769Y-12522664D02*
X14668769Y-12579806D01*
X14668769Y-12579806D02*
X14659245Y-12598854D01*
X14659245Y-12598854D02*
X14649721Y-12608378D01*
X14649721Y-12608378D02*
X14630674Y-12617902D01*
X14630674Y-12617902D02*
X14592578Y-12617902D01*
X14592578Y-12617902D02*
X14573531Y-12608378D01*
X14754483Y-12598854D02*
X14764007Y-12608378D01*
X14764007Y-12608378D02*
X14754483Y-12617902D01*
X14754483Y-12617902D02*
X14744959Y-12608378D01*
X14744959Y-12608378D02*
X14754483Y-12598854D01*
X14754483Y-12598854D02*
X14754483Y-12617902D01*
X14754483Y-12494092D02*
X14764007Y-12503616D01*
X14764007Y-12503616D02*
X14754483Y-12513140D01*
X14754483Y-12513140D02*
X14744959Y-12503616D01*
X14744959Y-12503616D02*
X14754483Y-12494092D01*
X14754483Y-12494092D02*
X14754483Y-12513140D01*
X12922278Y-12846418D02*
X13122278Y-13046418D01*
X13122278Y-12846418D02*
X12922278Y-13046418D01*
X13468769Y-12904568D02*
X13468769Y-13037902D01*
X13421150Y-12828378D02*
X13373531Y-12971235D01*
X13373531Y-12971235D02*
X13497340Y-12971235D01*
X13573531Y-13018854D02*
X13583054Y-13028378D01*
X13583054Y-13028378D02*
X13573531Y-13037902D01*
X13573531Y-13037902D02*
X13564007Y-13028378D01*
X13564007Y-13028378D02*
X13573531Y-13018854D01*
X13573531Y-13018854D02*
X13573531Y-13037902D01*
X13649721Y-12837902D02*
X13773531Y-12837902D01*
X13773531Y-12837902D02*
X13706864Y-12914092D01*
X13706864Y-12914092D02*
X13735435Y-12914092D01*
X13735435Y-12914092D02*
X13754483Y-12923616D01*
X13754483Y-12923616D02*
X13764007Y-12933140D01*
X13764007Y-12933140D02*
X13773531Y-12952187D01*
X13773531Y-12952187D02*
X13773531Y-12999806D01*
X13773531Y-12999806D02*
X13764007Y-13018854D01*
X13764007Y-13018854D02*
X13754483Y-13028378D01*
X13754483Y-13028378D02*
X13735435Y-13037902D01*
X13735435Y-13037902D02*
X13678293Y-13037902D01*
X13678293Y-13037902D02*
X13659245Y-13028378D01*
X13659245Y-13028378D02*
X13649721Y-13018854D01*
X13897340Y-12837902D02*
X13916388Y-12837902D01*
X13916388Y-12837902D02*
X13935435Y-12847426D01*
X13935435Y-12847426D02*
X13944959Y-12856949D01*
X13944959Y-12856949D02*
X13954483Y-12875997D01*
X13954483Y-12875997D02*
X13964007Y-12914092D01*
X13964007Y-12914092D02*
X13964007Y-12961711D01*
X13964007Y-12961711D02*
X13954483Y-12999806D01*
X13954483Y-12999806D02*
X13944959Y-13018854D01*
X13944959Y-13018854D02*
X13935435Y-13028378D01*
X13935435Y-13028378D02*
X13916388Y-13037902D01*
X13916388Y-13037902D02*
X13897340Y-13037902D01*
X13897340Y-13037902D02*
X13878293Y-13028378D01*
X13878293Y-13028378D02*
X13868769Y-13018854D01*
X13868769Y-13018854D02*
X13859245Y-12999806D01*
X13859245Y-12999806D02*
X13849721Y-12961711D01*
X13849721Y-12961711D02*
X13849721Y-12914092D01*
X13849721Y-12914092D02*
X13859245Y-12875997D01*
X13859245Y-12875997D02*
X13868769Y-12856949D01*
X13868769Y-12856949D02*
X13878293Y-12847426D01*
X13878293Y-12847426D02*
X13897340Y-12837902D01*
X14087816Y-12837902D02*
X14106864Y-12837902D01*
X14106864Y-12837902D02*
X14125912Y-12847426D01*
X14125912Y-12847426D02*
X14135435Y-12856949D01*
X14135435Y-12856949D02*
X14144959Y-12875997D01*
X14144959Y-12875997D02*
X14154483Y-12914092D01*
X14154483Y-12914092D02*
X14154483Y-12961711D01*
X14154483Y-12961711D02*
X14144959Y-12999806D01*
X14144959Y-12999806D02*
X14135435Y-13018854D01*
X14135435Y-13018854D02*
X14125912Y-13028378D01*
X14125912Y-13028378D02*
X14106864Y-13037902D01*
X14106864Y-13037902D02*
X14087816Y-13037902D01*
X14087816Y-13037902D02*
X14068769Y-13028378D01*
X14068769Y-13028378D02*
X14059245Y-13018854D01*
X14059245Y-13018854D02*
X14049721Y-12999806D01*
X14049721Y-12999806D02*
X14040197Y-12961711D01*
X14040197Y-12961711D02*
X14040197Y-12914092D01*
X14040197Y-12914092D02*
X14049721Y-12875997D01*
X14049721Y-12875997D02*
X14059245Y-12856949D01*
X14059245Y-12856949D02*
X14068769Y-12847426D01*
X14068769Y-12847426D02*
X14087816Y-12837902D01*
X14240197Y-13037902D02*
X14240197Y-12904568D01*
X14240197Y-12923616D02*
X14249721Y-12914092D01*
X14249721Y-12914092D02*
X14268769Y-12904568D01*
X14268769Y-12904568D02*
X14297340Y-12904568D01*
X14297340Y-12904568D02*
X14316388Y-12914092D01*
X14316388Y-12914092D02*
X14325912Y-12933140D01*
X14325912Y-12933140D02*
X14325912Y-13037902D01*
X14325912Y-12933140D02*
X14335435Y-12914092D01*
X14335435Y-12914092D02*
X14354483Y-12904568D01*
X14354483Y-12904568D02*
X14383054Y-12904568D01*
X14383054Y-12904568D02*
X14402102Y-12914092D01*
X14402102Y-12914092D02*
X14411626Y-12933140D01*
X14411626Y-12933140D02*
X14411626Y-13037902D01*
X14506864Y-13037902D02*
X14506864Y-12904568D01*
X14506864Y-12923616D02*
X14516388Y-12914092D01*
X14516388Y-12914092D02*
X14535435Y-12904568D01*
X14535435Y-12904568D02*
X14564007Y-12904568D01*
X14564007Y-12904568D02*
X14583055Y-12914092D01*
X14583055Y-12914092D02*
X14592578Y-12933140D01*
X14592578Y-12933140D02*
X14592578Y-13037902D01*
X14592578Y-12933140D02*
X14602102Y-12914092D01*
X14602102Y-12914092D02*
X14621150Y-12904568D01*
X14621150Y-12904568D02*
X14649721Y-12904568D01*
X14649721Y-12904568D02*
X14668769Y-12914092D01*
X14668769Y-12914092D02*
X14678293Y-12933140D01*
X14678293Y-12933140D02*
X14678293Y-13037902D01*
X15068769Y-12828378D02*
X14897340Y-13085521D01*
X15325912Y-12837902D02*
X15344959Y-12837902D01*
X15344959Y-12837902D02*
X15364007Y-12847426D01*
X15364007Y-12847426D02*
X15373531Y-12856949D01*
X15373531Y-12856949D02*
X15383055Y-12875997D01*
X15383055Y-12875997D02*
X15392578Y-12914092D01*
X15392578Y-12914092D02*
X15392578Y-12961711D01*
X15392578Y-12961711D02*
X15383055Y-12999806D01*
X15383055Y-12999806D02*
X15373531Y-13018854D01*
X15373531Y-13018854D02*
X15364007Y-13028378D01*
X15364007Y-13028378D02*
X15344959Y-13037902D01*
X15344959Y-13037902D02*
X15325912Y-13037902D01*
X15325912Y-13037902D02*
X15306864Y-13028378D01*
X15306864Y-13028378D02*
X15297340Y-13018854D01*
X15297340Y-13018854D02*
X15287817Y-12999806D01*
X15287817Y-12999806D02*
X15278293Y-12961711D01*
X15278293Y-12961711D02*
X15278293Y-12914092D01*
X15278293Y-12914092D02*
X15287817Y-12875997D01*
X15287817Y-12875997D02*
X15297340Y-12856949D01*
X15297340Y-12856949D02*
X15306864Y-12847426D01*
X15306864Y-12847426D02*
X15325912Y-12837902D01*
X15478293Y-13018854D02*
X15487817Y-13028378D01*
X15487817Y-13028378D02*
X15478293Y-13037902D01*
X15478293Y-13037902D02*
X15468769Y-13028378D01*
X15468769Y-13028378D02*
X15478293Y-13018854D01*
X15478293Y-13018854D02*
X15478293Y-13037902D01*
X15678293Y-13037902D02*
X15564007Y-13037902D01*
X15621150Y-13037902D02*
X15621150Y-12837902D01*
X15621150Y-12837902D02*
X15602102Y-12866473D01*
X15602102Y-12866473D02*
X15583055Y-12885521D01*
X15583055Y-12885521D02*
X15564007Y-12895045D01*
X15849721Y-12837902D02*
X15811626Y-12837902D01*
X15811626Y-12837902D02*
X15792578Y-12847426D01*
X15792578Y-12847426D02*
X15783055Y-12856949D01*
X15783055Y-12856949D02*
X15764007Y-12885521D01*
X15764007Y-12885521D02*
X15754483Y-12923616D01*
X15754483Y-12923616D02*
X15754483Y-12999806D01*
X15754483Y-12999806D02*
X15764007Y-13018854D01*
X15764007Y-13018854D02*
X15773531Y-13028378D01*
X15773531Y-13028378D02*
X15792578Y-13037902D01*
X15792578Y-13037902D02*
X15830674Y-13037902D01*
X15830674Y-13037902D02*
X15849721Y-13028378D01*
X15849721Y-13028378D02*
X15859245Y-13018854D01*
X15859245Y-13018854D02*
X15868769Y-12999806D01*
X15868769Y-12999806D02*
X15868769Y-12952187D01*
X15868769Y-12952187D02*
X15859245Y-12933140D01*
X15859245Y-12933140D02*
X15849721Y-12923616D01*
X15849721Y-12923616D02*
X15830674Y-12914092D01*
X15830674Y-12914092D02*
X15792578Y-12914092D01*
X15792578Y-12914092D02*
X15773531Y-12923616D01*
X15773531Y-12923616D02*
X15764007Y-12933140D01*
X15764007Y-12933140D02*
X15754483Y-12952187D01*
X15964007Y-13037902D02*
X16002102Y-13037902D01*
X16002102Y-13037902D02*
X16021150Y-13028378D01*
X16021150Y-13028378D02*
X16030674Y-13018854D01*
X16030674Y-13018854D02*
X16049721Y-12990283D01*
X16049721Y-12990283D02*
X16059245Y-12952187D01*
X16059245Y-12952187D02*
X16059245Y-12875997D01*
X16059245Y-12875997D02*
X16049721Y-12856949D01*
X16049721Y-12856949D02*
X16040198Y-12847426D01*
X16040198Y-12847426D02*
X16021150Y-12837902D01*
X16021150Y-12837902D02*
X15983055Y-12837902D01*
X15983055Y-12837902D02*
X15964007Y-12847426D01*
X15964007Y-12847426D02*
X15954483Y-12856949D01*
X15954483Y-12856949D02*
X15944959Y-12875997D01*
X15944959Y-12875997D02*
X15944959Y-12923616D01*
X15944959Y-12923616D02*
X15954483Y-12942664D01*
X15954483Y-12942664D02*
X15964007Y-12952187D01*
X15964007Y-12952187D02*
X15983055Y-12961711D01*
X15983055Y-12961711D02*
X16021150Y-12961711D01*
X16021150Y-12961711D02*
X16040198Y-12952187D01*
X16040198Y-12952187D02*
X16049721Y-12942664D01*
X16049721Y-12942664D02*
X16059245Y-12923616D01*
X16125912Y-12837902D02*
X16249721Y-12837902D01*
X16249721Y-12837902D02*
X16183055Y-12914092D01*
X16183055Y-12914092D02*
X16211626Y-12914092D01*
X16211626Y-12914092D02*
X16230674Y-12923616D01*
X16230674Y-12923616D02*
X16240198Y-12933140D01*
X16240198Y-12933140D02*
X16249721Y-12952187D01*
X16249721Y-12952187D02*
X16249721Y-12999806D01*
X16249721Y-12999806D02*
X16240198Y-13018854D01*
X16240198Y-13018854D02*
X16230674Y-13028378D01*
X16230674Y-13028378D02*
X16211626Y-13037902D01*
X16211626Y-13037902D02*
X16154483Y-13037902D01*
X16154483Y-13037902D02*
X16135436Y-13028378D01*
X16135436Y-13028378D02*
X16125912Y-13018854D01*
X16325912Y-12837902D02*
X16325912Y-12875997D01*
X16402102Y-12837902D02*
X16402102Y-12875997D01*
X16697341Y-13114092D02*
X16687817Y-13104568D01*
X16687817Y-13104568D02*
X16668769Y-13075997D01*
X16668769Y-13075997D02*
X16659245Y-13056949D01*
X16659245Y-13056949D02*
X16649721Y-13028378D01*
X16649721Y-13028378D02*
X16640198Y-12980759D01*
X16640198Y-12980759D02*
X16640198Y-12942664D01*
X16640198Y-12942664D02*
X16649721Y-12895045D01*
X16649721Y-12895045D02*
X16659245Y-12866473D01*
X16659245Y-12866473D02*
X16668769Y-12847426D01*
X16668769Y-12847426D02*
X16687817Y-12818854D01*
X16687817Y-12818854D02*
X16697341Y-12809330D01*
X16859245Y-12904568D02*
X16859245Y-13037902D01*
X16811626Y-12828378D02*
X16764007Y-12971235D01*
X16764007Y-12971235D02*
X16887817Y-12971235D01*
X17116388Y-13037902D02*
X17116388Y-12837902D01*
X17202103Y-13037902D02*
X17202103Y-12933140D01*
X17202103Y-12933140D02*
X17192579Y-12914092D01*
X17192579Y-12914092D02*
X17173531Y-12904568D01*
X17173531Y-12904568D02*
X17144960Y-12904568D01*
X17144960Y-12904568D02*
X17125912Y-12914092D01*
X17125912Y-12914092D02*
X17116388Y-12923616D01*
X17325912Y-13037902D02*
X17306864Y-13028378D01*
X17306864Y-13028378D02*
X17297341Y-13018854D01*
X17297341Y-13018854D02*
X17287817Y-12999806D01*
X17287817Y-12999806D02*
X17287817Y-12942664D01*
X17287817Y-12942664D02*
X17297341Y-12923616D01*
X17297341Y-12923616D02*
X17306864Y-12914092D01*
X17306864Y-12914092D02*
X17325912Y-12904568D01*
X17325912Y-12904568D02*
X17354484Y-12904568D01*
X17354484Y-12904568D02*
X17373531Y-12914092D01*
X17373531Y-12914092D02*
X17383055Y-12923616D01*
X17383055Y-12923616D02*
X17392579Y-12942664D01*
X17392579Y-12942664D02*
X17392579Y-12999806D01*
X17392579Y-12999806D02*
X17383055Y-13018854D01*
X17383055Y-13018854D02*
X17373531Y-13028378D01*
X17373531Y-13028378D02*
X17354484Y-13037902D01*
X17354484Y-13037902D02*
X17325912Y-13037902D01*
X17506864Y-13037902D02*
X17487817Y-13028378D01*
X17487817Y-13028378D02*
X17478293Y-13009330D01*
X17478293Y-13009330D02*
X17478293Y-12837902D01*
X17659245Y-13028378D02*
X17640198Y-13037902D01*
X17640198Y-13037902D02*
X17602103Y-13037902D01*
X17602103Y-13037902D02*
X17583055Y-13028378D01*
X17583055Y-13028378D02*
X17573531Y-13009330D01*
X17573531Y-13009330D02*
X17573531Y-12933140D01*
X17573531Y-12933140D02*
X17583055Y-12914092D01*
X17583055Y-12914092D02*
X17602103Y-12904568D01*
X17602103Y-12904568D02*
X17640198Y-12904568D01*
X17640198Y-12904568D02*
X17659245Y-12914092D01*
X17659245Y-12914092D02*
X17668769Y-12933140D01*
X17668769Y-12933140D02*
X17668769Y-12952187D01*
X17668769Y-12952187D02*
X17573531Y-12971235D01*
X17744960Y-13028378D02*
X17764007Y-13037902D01*
X17764007Y-13037902D02*
X17802103Y-13037902D01*
X17802103Y-13037902D02*
X17821150Y-13028378D01*
X17821150Y-13028378D02*
X17830674Y-13009330D01*
X17830674Y-13009330D02*
X17830674Y-12999806D01*
X17830674Y-12999806D02*
X17821150Y-12980759D01*
X17821150Y-12980759D02*
X17802103Y-12971235D01*
X17802103Y-12971235D02*
X17773531Y-12971235D01*
X17773531Y-12971235D02*
X17754484Y-12961711D01*
X17754484Y-12961711D02*
X17744960Y-12942664D01*
X17744960Y-12942664D02*
X17744960Y-12933140D01*
X17744960Y-12933140D02*
X17754484Y-12914092D01*
X17754484Y-12914092D02*
X17773531Y-12904568D01*
X17773531Y-12904568D02*
X17802103Y-12904568D01*
X17802103Y-12904568D02*
X17821150Y-12914092D01*
X17897341Y-13114092D02*
X17906865Y-13104568D01*
X17906865Y-13104568D02*
X17925912Y-13075997D01*
X17925912Y-13075997D02*
X17935436Y-13056949D01*
X17935436Y-13056949D02*
X17944960Y-13028378D01*
X17944960Y-13028378D02*
X17954484Y-12980759D01*
X17954484Y-12980759D02*
X17954484Y-12942664D01*
X17954484Y-12942664D02*
X17944960Y-12895045D01*
X17944960Y-12895045D02*
X17935436Y-12866473D01*
X17935436Y-12866473D02*
X17925912Y-12847426D01*
X17925912Y-12847426D02*
X17906865Y-12818854D01*
X17906865Y-12818854D02*
X17897341Y-12809330D01*
X18259246Y-13114092D02*
X18249722Y-13104568D01*
X18249722Y-13104568D02*
X18230674Y-13075997D01*
X18230674Y-13075997D02*
X18221150Y-13056949D01*
X18221150Y-13056949D02*
X18211626Y-13028378D01*
X18211626Y-13028378D02*
X18202103Y-12980759D01*
X18202103Y-12980759D02*
X18202103Y-12942664D01*
X18202103Y-12942664D02*
X18211626Y-12895045D01*
X18211626Y-12895045D02*
X18221150Y-12866473D01*
X18221150Y-12866473D02*
X18230674Y-12847426D01*
X18230674Y-12847426D02*
X18249722Y-12818854D01*
X18249722Y-12818854D02*
X18259246Y-12809330D01*
X18335436Y-12904568D02*
X18335436Y-13037902D01*
X18335436Y-12923616D02*
X18344960Y-12914092D01*
X18344960Y-12914092D02*
X18364007Y-12904568D01*
X18364007Y-12904568D02*
X18392579Y-12904568D01*
X18392579Y-12904568D02*
X18411626Y-12914092D01*
X18411626Y-12914092D02*
X18421150Y-12933140D01*
X18421150Y-12933140D02*
X18421150Y-13037902D01*
X18544960Y-13037902D02*
X18525912Y-13028378D01*
X18525912Y-13028378D02*
X18516388Y-13018854D01*
X18516388Y-13018854D02*
X18506865Y-12999806D01*
X18506865Y-12999806D02*
X18506865Y-12942664D01*
X18506865Y-12942664D02*
X18516388Y-12923616D01*
X18516388Y-12923616D02*
X18525912Y-12914092D01*
X18525912Y-12914092D02*
X18544960Y-12904568D01*
X18544960Y-12904568D02*
X18573531Y-12904568D01*
X18573531Y-12904568D02*
X18592579Y-12914092D01*
X18592579Y-12914092D02*
X18602103Y-12923616D01*
X18602103Y-12923616D02*
X18611626Y-12942664D01*
X18611626Y-12942664D02*
X18611626Y-12999806D01*
X18611626Y-12999806D02*
X18602103Y-13018854D01*
X18602103Y-13018854D02*
X18592579Y-13028378D01*
X18592579Y-13028378D02*
X18573531Y-13037902D01*
X18573531Y-13037902D02*
X18544960Y-13037902D01*
X18668769Y-12904568D02*
X18744960Y-12904568D01*
X18697341Y-12837902D02*
X18697341Y-13009330D01*
X18697341Y-13009330D02*
X18706865Y-13028378D01*
X18706865Y-13028378D02*
X18725912Y-13037902D01*
X18725912Y-13037902D02*
X18744960Y-13037902D01*
X18964007Y-12904568D02*
X18964007Y-13104568D01*
X18964007Y-12914092D02*
X18983055Y-12904568D01*
X18983055Y-12904568D02*
X19021150Y-12904568D01*
X19021150Y-12904568D02*
X19040198Y-12914092D01*
X19040198Y-12914092D02*
X19049722Y-12923616D01*
X19049722Y-12923616D02*
X19059246Y-12942664D01*
X19059246Y-12942664D02*
X19059246Y-12999806D01*
X19059246Y-12999806D02*
X19049722Y-13018854D01*
X19049722Y-13018854D02*
X19040198Y-13028378D01*
X19040198Y-13028378D02*
X19021150Y-13037902D01*
X19021150Y-13037902D02*
X18983055Y-13037902D01*
X18983055Y-13037902D02*
X18964007Y-13028378D01*
X19173531Y-13037902D02*
X19154484Y-13028378D01*
X19154484Y-13028378D02*
X19144960Y-13009330D01*
X19144960Y-13009330D02*
X19144960Y-12837902D01*
X19335436Y-13037902D02*
X19335436Y-12933140D01*
X19335436Y-12933140D02*
X19325912Y-12914092D01*
X19325912Y-12914092D02*
X19306865Y-12904568D01*
X19306865Y-12904568D02*
X19268769Y-12904568D01*
X19268769Y-12904568D02*
X19249722Y-12914092D01*
X19335436Y-13028378D02*
X19316388Y-13037902D01*
X19316388Y-13037902D02*
X19268769Y-13037902D01*
X19268769Y-13037902D02*
X19249722Y-13028378D01*
X19249722Y-13028378D02*
X19240198Y-13009330D01*
X19240198Y-13009330D02*
X19240198Y-12990283D01*
X19240198Y-12990283D02*
X19249722Y-12971235D01*
X19249722Y-12971235D02*
X19268769Y-12961711D01*
X19268769Y-12961711D02*
X19316388Y-12961711D01*
X19316388Y-12961711D02*
X19335436Y-12952187D01*
X19402103Y-12904568D02*
X19478293Y-12904568D01*
X19430674Y-12837902D02*
X19430674Y-13009330D01*
X19430674Y-13009330D02*
X19440198Y-13028378D01*
X19440198Y-13028378D02*
X19459246Y-13037902D01*
X19459246Y-13037902D02*
X19478293Y-13037902D01*
X19621150Y-13028378D02*
X19602103Y-13037902D01*
X19602103Y-13037902D02*
X19564007Y-13037902D01*
X19564007Y-13037902D02*
X19544960Y-13028378D01*
X19544960Y-13028378D02*
X19535436Y-13009330D01*
X19535436Y-13009330D02*
X19535436Y-12933140D01*
X19535436Y-12933140D02*
X19544960Y-12914092D01*
X19544960Y-12914092D02*
X19564007Y-12904568D01*
X19564007Y-12904568D02*
X19602103Y-12904568D01*
X19602103Y-12904568D02*
X19621150Y-12914092D01*
X19621150Y-12914092D02*
X19630674Y-12933140D01*
X19630674Y-12933140D02*
X19630674Y-12952187D01*
X19630674Y-12952187D02*
X19535436Y-12971235D01*
X19802103Y-13037902D02*
X19802103Y-12837902D01*
X19802103Y-13028378D02*
X19783055Y-13037902D01*
X19783055Y-13037902D02*
X19744960Y-13037902D01*
X19744960Y-13037902D02*
X19725912Y-13028378D01*
X19725912Y-13028378D02*
X19716388Y-13018854D01*
X19716388Y-13018854D02*
X19706865Y-12999806D01*
X19706865Y-12999806D02*
X19706865Y-12942664D01*
X19706865Y-12942664D02*
X19716388Y-12923616D01*
X19716388Y-12923616D02*
X19725912Y-12914092D01*
X19725912Y-12914092D02*
X19744960Y-12904568D01*
X19744960Y-12904568D02*
X19783055Y-12904568D01*
X19783055Y-12904568D02*
X19802103Y-12914092D01*
X19878293Y-13114092D02*
X19887817Y-13104568D01*
X19887817Y-13104568D02*
X19906865Y-13075997D01*
X19906865Y-13075997D02*
X19916388Y-13056949D01*
X19916388Y-13056949D02*
X19925912Y-13028378D01*
X19925912Y-13028378D02*
X19935436Y-12980759D01*
X19935436Y-12980759D02*
X19935436Y-12942664D01*
X19935436Y-12942664D02*
X19925912Y-12895045D01*
X19925912Y-12895045D02*
X19916388Y-12866473D01*
X19916388Y-12866473D02*
X19906865Y-12847426D01*
X19906865Y-12847426D02*
X19887817Y-12818854D01*
X19887817Y-12818854D02*
X19878293Y-12809330D01*
M02*
