G04 #@! TF.GenerationSoftware,KiCad,Pcbnew,7.0.8-dirty*
G04 #@! TF.CreationDate,2023-11-16T23:24:39-03:00*
G04 #@! TF.ProjectId,Fonte 0-24V,466f6e74-6520-4302-9d32-34562e6b6963,rev?*
G04 #@! TF.SameCoordinates,Original*
G04 #@! TF.FileFunction,Legend,Bot*
G04 #@! TF.FilePolarity,Positive*
%FSLAX46Y46*%
G04 Gerber Fmt 4.6, Leading zero omitted, Abs format (unit mm)*
G04 Created by KiCad (PCBNEW 7.0.8-dirty) date 2023-11-16 23:24:39*
%MOMM*%
%LPD*%
G01*
G04 APERTURE LIST*
G04 Aperture macros list*
%AMRoundRect*
0 Rectangle with rounded corners*
0 $1 Rounding radius*
0 $2 $3 $4 $5 $6 $7 $8 $9 X,Y pos of 4 corners*
0 Add a 4 corners polygon primitive as box body*
4,1,4,$2,$3,$4,$5,$6,$7,$8,$9,$2,$3,0*
0 Add four circle primitives for the rounded corners*
1,1,$1+$1,$2,$3*
1,1,$1+$1,$4,$5*
1,1,$1+$1,$6,$7*
1,1,$1+$1,$8,$9*
0 Add four rect primitives between the rounded corners*
20,1,$1+$1,$2,$3,$4,$5,0*
20,1,$1+$1,$4,$5,$6,$7,0*
20,1,$1+$1,$6,$7,$8,$9,0*
20,1,$1+$1,$8,$9,$2,$3,0*%
G04 Aperture macros list end*
%ADD10C,0.200000*%
%ADD11C,2.000000*%
%ADD12R,2.200000X2.200000*%
%ADD13O,2.200000X2.200000*%
%ADD14C,4.300000*%
%ADD15C,2.500000*%
%ADD16O,2.000000X2.000000*%
%ADD17R,2.000000X2.000000*%
%ADD18C,1.600000*%
%ADD19RoundRect,0.250000X-1.550000X0.650000X-1.550000X-0.650000X1.550000X-0.650000X1.550000X0.650000X0*%
%ADD20O,3.600000X1.800000*%
%ADD21R,1.800000X1.800000*%
%ADD22R,1.050000X1.500000*%
%ADD23O,1.050000X1.500000*%
%ADD24R,2.400000X2.400000*%
%ADD25C,2.400000*%
%ADD26C,1.800000*%
%ADD27R,1.500000X1.050000*%
%ADD28O,1.500000X1.050000*%
G04 APERTURE END LIST*
D10*
X173214095Y-46347219D02*
X173214095Y-45347219D01*
X173214095Y-45347219D02*
X172976000Y-45347219D01*
X172976000Y-45347219D02*
X172833143Y-45394838D01*
X172833143Y-45394838D02*
X172737905Y-45490076D01*
X172737905Y-45490076D02*
X172690286Y-45585314D01*
X172690286Y-45585314D02*
X172642667Y-45775790D01*
X172642667Y-45775790D02*
X172642667Y-45918647D01*
X172642667Y-45918647D02*
X172690286Y-46109123D01*
X172690286Y-46109123D02*
X172737905Y-46204361D01*
X172737905Y-46204361D02*
X172833143Y-46299600D01*
X172833143Y-46299600D02*
X172976000Y-46347219D01*
X172976000Y-46347219D02*
X173214095Y-46347219D01*
X171642667Y-46251980D02*
X171690286Y-46299600D01*
X171690286Y-46299600D02*
X171833143Y-46347219D01*
X171833143Y-46347219D02*
X171928381Y-46347219D01*
X171928381Y-46347219D02*
X172071238Y-46299600D01*
X172071238Y-46299600D02*
X172166476Y-46204361D01*
X172166476Y-46204361D02*
X172214095Y-46109123D01*
X172214095Y-46109123D02*
X172261714Y-45918647D01*
X172261714Y-45918647D02*
X172261714Y-45775790D01*
X172261714Y-45775790D02*
X172214095Y-45585314D01*
X172214095Y-45585314D02*
X172166476Y-45490076D01*
X172166476Y-45490076D02*
X172071238Y-45394838D01*
X172071238Y-45394838D02*
X171928381Y-45347219D01*
X171928381Y-45347219D02*
X171833143Y-45347219D01*
X171833143Y-45347219D02*
X171690286Y-45394838D01*
X171690286Y-45394838D02*
X171642667Y-45442457D01*
X171452191Y-46442457D02*
X170690286Y-46442457D01*
X170452190Y-46347219D02*
X170452190Y-45347219D01*
X170452190Y-45347219D02*
X170071238Y-45347219D01*
X170071238Y-45347219D02*
X169976000Y-45394838D01*
X169976000Y-45394838D02*
X169928381Y-45442457D01*
X169928381Y-45442457D02*
X169880762Y-45537695D01*
X169880762Y-45537695D02*
X169880762Y-45680552D01*
X169880762Y-45680552D02*
X169928381Y-45775790D01*
X169928381Y-45775790D02*
X169976000Y-45823409D01*
X169976000Y-45823409D02*
X170071238Y-45871028D01*
X170071238Y-45871028D02*
X170452190Y-45871028D01*
X169309333Y-46347219D02*
X169404571Y-46299600D01*
X169404571Y-46299600D02*
X169452190Y-46251980D01*
X169452190Y-46251980D02*
X169499809Y-46156742D01*
X169499809Y-46156742D02*
X169499809Y-45871028D01*
X169499809Y-45871028D02*
X169452190Y-45775790D01*
X169452190Y-45775790D02*
X169404571Y-45728171D01*
X169404571Y-45728171D02*
X169309333Y-45680552D01*
X169309333Y-45680552D02*
X169166476Y-45680552D01*
X169166476Y-45680552D02*
X169071238Y-45728171D01*
X169071238Y-45728171D02*
X169023619Y-45775790D01*
X169023619Y-45775790D02*
X168976000Y-45871028D01*
X168976000Y-45871028D02*
X168976000Y-46156742D01*
X168976000Y-46156742D02*
X169023619Y-46251980D01*
X169023619Y-46251980D02*
X169071238Y-46299600D01*
X169071238Y-46299600D02*
X169166476Y-46347219D01*
X169166476Y-46347219D02*
X169309333Y-46347219D01*
X168642666Y-45680552D02*
X168452190Y-46347219D01*
X168452190Y-46347219D02*
X168261714Y-45871028D01*
X168261714Y-45871028D02*
X168071238Y-46347219D01*
X168071238Y-46347219D02*
X167880762Y-45680552D01*
X167118857Y-46299600D02*
X167214095Y-46347219D01*
X167214095Y-46347219D02*
X167404571Y-46347219D01*
X167404571Y-46347219D02*
X167499809Y-46299600D01*
X167499809Y-46299600D02*
X167547428Y-46204361D01*
X167547428Y-46204361D02*
X167547428Y-45823409D01*
X167547428Y-45823409D02*
X167499809Y-45728171D01*
X167499809Y-45728171D02*
X167404571Y-45680552D01*
X167404571Y-45680552D02*
X167214095Y-45680552D01*
X167214095Y-45680552D02*
X167118857Y-45728171D01*
X167118857Y-45728171D02*
X167071238Y-45823409D01*
X167071238Y-45823409D02*
X167071238Y-45918647D01*
X167071238Y-45918647D02*
X167547428Y-46013885D01*
X166642666Y-46347219D02*
X166642666Y-45680552D01*
X166642666Y-45871028D02*
X166595047Y-45775790D01*
X166595047Y-45775790D02*
X166547428Y-45728171D01*
X166547428Y-45728171D02*
X166452190Y-45680552D01*
X166452190Y-45680552D02*
X166356952Y-45680552D01*
X166261714Y-46442457D02*
X165499809Y-46442457D01*
X165309332Y-46299600D02*
X165166475Y-46347219D01*
X165166475Y-46347219D02*
X164928380Y-46347219D01*
X164928380Y-46347219D02*
X164833142Y-46299600D01*
X164833142Y-46299600D02*
X164785523Y-46251980D01*
X164785523Y-46251980D02*
X164737904Y-46156742D01*
X164737904Y-46156742D02*
X164737904Y-46061504D01*
X164737904Y-46061504D02*
X164785523Y-45966266D01*
X164785523Y-45966266D02*
X164833142Y-45918647D01*
X164833142Y-45918647D02*
X164928380Y-45871028D01*
X164928380Y-45871028D02*
X165118856Y-45823409D01*
X165118856Y-45823409D02*
X165214094Y-45775790D01*
X165214094Y-45775790D02*
X165261713Y-45728171D01*
X165261713Y-45728171D02*
X165309332Y-45632933D01*
X165309332Y-45632933D02*
X165309332Y-45537695D01*
X165309332Y-45537695D02*
X165261713Y-45442457D01*
X165261713Y-45442457D02*
X165214094Y-45394838D01*
X165214094Y-45394838D02*
X165118856Y-45347219D01*
X165118856Y-45347219D02*
X164880761Y-45347219D01*
X164880761Y-45347219D02*
X164737904Y-45394838D01*
X163880761Y-45680552D02*
X163880761Y-46347219D01*
X164309332Y-45680552D02*
X164309332Y-46204361D01*
X164309332Y-46204361D02*
X164261713Y-46299600D01*
X164261713Y-46299600D02*
X164166475Y-46347219D01*
X164166475Y-46347219D02*
X164023618Y-46347219D01*
X164023618Y-46347219D02*
X163928380Y-46299600D01*
X163928380Y-46299600D02*
X163880761Y-46251980D01*
X163404570Y-45680552D02*
X163404570Y-46680552D01*
X163404570Y-45728171D02*
X163309332Y-45680552D01*
X163309332Y-45680552D02*
X163118856Y-45680552D01*
X163118856Y-45680552D02*
X163023618Y-45728171D01*
X163023618Y-45728171D02*
X162975999Y-45775790D01*
X162975999Y-45775790D02*
X162928380Y-45871028D01*
X162928380Y-45871028D02*
X162928380Y-46156742D01*
X162928380Y-46156742D02*
X162975999Y-46251980D01*
X162975999Y-46251980D02*
X163023618Y-46299600D01*
X163023618Y-46299600D02*
X163118856Y-46347219D01*
X163118856Y-46347219D02*
X163309332Y-46347219D01*
X163309332Y-46347219D02*
X163404570Y-46299600D01*
X162499808Y-45680552D02*
X162499808Y-46680552D01*
X162499808Y-45728171D02*
X162404570Y-45680552D01*
X162404570Y-45680552D02*
X162214094Y-45680552D01*
X162214094Y-45680552D02*
X162118856Y-45728171D01*
X162118856Y-45728171D02*
X162071237Y-45775790D01*
X162071237Y-45775790D02*
X162023618Y-45871028D01*
X162023618Y-45871028D02*
X162023618Y-46156742D01*
X162023618Y-46156742D02*
X162071237Y-46251980D01*
X162071237Y-46251980D02*
X162118856Y-46299600D01*
X162118856Y-46299600D02*
X162214094Y-46347219D01*
X162214094Y-46347219D02*
X162404570Y-46347219D01*
X162404570Y-46347219D02*
X162499808Y-46299600D01*
X161452189Y-46347219D02*
X161547427Y-46299600D01*
X161547427Y-46299600D02*
X161595046Y-46204361D01*
X161595046Y-46204361D02*
X161595046Y-45347219D01*
X161166474Y-45680552D02*
X160928379Y-46347219D01*
X160690284Y-45680552D02*
X160928379Y-46347219D01*
X160928379Y-46347219D02*
X161023617Y-46585314D01*
X161023617Y-46585314D02*
X161071236Y-46632933D01*
X161071236Y-46632933D02*
X161166474Y-46680552D01*
X159547426Y-45966266D02*
X158785522Y-45966266D01*
X157690283Y-45347219D02*
X157356950Y-46347219D01*
X157356950Y-46347219D02*
X157023617Y-45347219D01*
X156309331Y-46299600D02*
X156404569Y-46347219D01*
X156404569Y-46347219D02*
X156595045Y-46347219D01*
X156595045Y-46347219D02*
X156690283Y-46299600D01*
X156690283Y-46299600D02*
X156737902Y-46204361D01*
X156737902Y-46204361D02*
X156737902Y-45823409D01*
X156737902Y-45823409D02*
X156690283Y-45728171D01*
X156690283Y-45728171D02*
X156595045Y-45680552D01*
X156595045Y-45680552D02*
X156404569Y-45680552D01*
X156404569Y-45680552D02*
X156309331Y-45728171D01*
X156309331Y-45728171D02*
X156261712Y-45823409D01*
X156261712Y-45823409D02*
X156261712Y-45918647D01*
X156261712Y-45918647D02*
X156737902Y-46013885D01*
X155833140Y-46347219D02*
X155833140Y-45680552D01*
X155833140Y-45871028D02*
X155785521Y-45775790D01*
X155785521Y-45775790D02*
X155737902Y-45728171D01*
X155737902Y-45728171D02*
X155642664Y-45680552D01*
X155642664Y-45680552D02*
X155547426Y-45680552D01*
X155261711Y-46299600D02*
X155166473Y-46347219D01*
X155166473Y-46347219D02*
X154975997Y-46347219D01*
X154975997Y-46347219D02*
X154880759Y-46299600D01*
X154880759Y-46299600D02*
X154833140Y-46204361D01*
X154833140Y-46204361D02*
X154833140Y-46156742D01*
X154833140Y-46156742D02*
X154880759Y-46061504D01*
X154880759Y-46061504D02*
X154975997Y-46013885D01*
X154975997Y-46013885D02*
X155118854Y-46013885D01*
X155118854Y-46013885D02*
X155214092Y-45966266D01*
X155214092Y-45966266D02*
X155261711Y-45871028D01*
X155261711Y-45871028D02*
X155261711Y-45823409D01*
X155261711Y-45823409D02*
X155214092Y-45728171D01*
X155214092Y-45728171D02*
X155118854Y-45680552D01*
X155118854Y-45680552D02*
X154975997Y-45680552D01*
X154975997Y-45680552D02*
X154880759Y-45728171D01*
X154404568Y-46347219D02*
X154404568Y-45680552D01*
X154404568Y-45347219D02*
X154452187Y-45394838D01*
X154452187Y-45394838D02*
X154404568Y-45442457D01*
X154404568Y-45442457D02*
X154356949Y-45394838D01*
X154356949Y-45394838D02*
X154404568Y-45347219D01*
X154404568Y-45347219D02*
X154404568Y-45442457D01*
X153785521Y-46347219D02*
X153880759Y-46299600D01*
X153880759Y-46299600D02*
X153928378Y-46251980D01*
X153928378Y-46251980D02*
X153975997Y-46156742D01*
X153975997Y-46156742D02*
X153975997Y-45871028D01*
X153975997Y-45871028D02*
X153928378Y-45775790D01*
X153928378Y-45775790D02*
X153880759Y-45728171D01*
X153880759Y-45728171D02*
X153785521Y-45680552D01*
X153785521Y-45680552D02*
X153642664Y-45680552D01*
X153642664Y-45680552D02*
X153547426Y-45728171D01*
X153547426Y-45728171D02*
X153499807Y-45775790D01*
X153499807Y-45775790D02*
X153452188Y-45871028D01*
X153452188Y-45871028D02*
X153452188Y-46156742D01*
X153452188Y-46156742D02*
X153499807Y-46251980D01*
X153499807Y-46251980D02*
X153547426Y-46299600D01*
X153547426Y-46299600D02*
X153642664Y-46347219D01*
X153642664Y-46347219D02*
X153785521Y-46347219D01*
X153023616Y-45680552D02*
X153023616Y-46347219D01*
X153023616Y-45775790D02*
X152975997Y-45728171D01*
X152975997Y-45728171D02*
X152880759Y-45680552D01*
X152880759Y-45680552D02*
X152737902Y-45680552D01*
X152737902Y-45680552D02*
X152642664Y-45728171D01*
X152642664Y-45728171D02*
X152595045Y-45823409D01*
X152595045Y-45823409D02*
X152595045Y-46347219D01*
X152118854Y-46251980D02*
X152071235Y-46299600D01*
X152071235Y-46299600D02*
X152118854Y-46347219D01*
X152118854Y-46347219D02*
X152166473Y-46299600D01*
X152166473Y-46299600D02*
X152118854Y-46251980D01*
X152118854Y-46251980D02*
X152118854Y-46347219D01*
X152118854Y-45728171D02*
X152071235Y-45775790D01*
X152071235Y-45775790D02*
X152118854Y-45823409D01*
X152118854Y-45823409D02*
X152166473Y-45775790D01*
X152166473Y-45775790D02*
X152118854Y-45728171D01*
X152118854Y-45728171D02*
X152118854Y-45823409D01*
X151118855Y-46347219D02*
X151690283Y-46347219D01*
X151404569Y-46347219D02*
X151404569Y-45347219D01*
X151404569Y-45347219D02*
X151499807Y-45490076D01*
X151499807Y-45490076D02*
X151595045Y-45585314D01*
X151595045Y-45585314D02*
X151690283Y-45632933D01*
X150690283Y-46251980D02*
X150642664Y-46299600D01*
X150642664Y-46299600D02*
X150690283Y-46347219D01*
X150690283Y-46347219D02*
X150737902Y-46299600D01*
X150737902Y-46299600D02*
X150690283Y-46251980D01*
X150690283Y-46251980D02*
X150690283Y-46347219D01*
X150023617Y-45347219D02*
X149928379Y-45347219D01*
X149928379Y-45347219D02*
X149833141Y-45394838D01*
X149833141Y-45394838D02*
X149785522Y-45442457D01*
X149785522Y-45442457D02*
X149737903Y-45537695D01*
X149737903Y-45537695D02*
X149690284Y-45728171D01*
X149690284Y-45728171D02*
X149690284Y-45966266D01*
X149690284Y-45966266D02*
X149737903Y-46156742D01*
X149737903Y-46156742D02*
X149785522Y-46251980D01*
X149785522Y-46251980D02*
X149833141Y-46299600D01*
X149833141Y-46299600D02*
X149928379Y-46347219D01*
X149928379Y-46347219D02*
X150023617Y-46347219D01*
X150023617Y-46347219D02*
X150118855Y-46299600D01*
X150118855Y-46299600D02*
X150166474Y-46251980D01*
X150166474Y-46251980D02*
X150214093Y-46156742D01*
X150214093Y-46156742D02*
X150261712Y-45966266D01*
X150261712Y-45966266D02*
X150261712Y-45728171D01*
X150261712Y-45728171D02*
X150214093Y-45537695D01*
X150214093Y-45537695D02*
X150166474Y-45442457D01*
X150166474Y-45442457D02*
X150118855Y-45394838D01*
X150118855Y-45394838D02*
X150023617Y-45347219D01*
X175333143Y-47957219D02*
X175333143Y-46957219D01*
X175333143Y-46957219D02*
X175095048Y-46957219D01*
X175095048Y-46957219D02*
X174952191Y-47004838D01*
X174952191Y-47004838D02*
X174856953Y-47100076D01*
X174856953Y-47100076D02*
X174809334Y-47195314D01*
X174809334Y-47195314D02*
X174761715Y-47385790D01*
X174761715Y-47385790D02*
X174761715Y-47528647D01*
X174761715Y-47528647D02*
X174809334Y-47719123D01*
X174809334Y-47719123D02*
X174856953Y-47814361D01*
X174856953Y-47814361D02*
X174952191Y-47909600D01*
X174952191Y-47909600D02*
X175095048Y-47957219D01*
X175095048Y-47957219D02*
X175333143Y-47957219D01*
X173952191Y-47909600D02*
X174047429Y-47957219D01*
X174047429Y-47957219D02*
X174237905Y-47957219D01*
X174237905Y-47957219D02*
X174333143Y-47909600D01*
X174333143Y-47909600D02*
X174380762Y-47814361D01*
X174380762Y-47814361D02*
X174380762Y-47433409D01*
X174380762Y-47433409D02*
X174333143Y-47338171D01*
X174333143Y-47338171D02*
X174237905Y-47290552D01*
X174237905Y-47290552D02*
X174047429Y-47290552D01*
X174047429Y-47290552D02*
X173952191Y-47338171D01*
X173952191Y-47338171D02*
X173904572Y-47433409D01*
X173904572Y-47433409D02*
X173904572Y-47528647D01*
X173904572Y-47528647D02*
X174380762Y-47623885D01*
X173523619Y-47909600D02*
X173428381Y-47957219D01*
X173428381Y-47957219D02*
X173237905Y-47957219D01*
X173237905Y-47957219D02*
X173142667Y-47909600D01*
X173142667Y-47909600D02*
X173095048Y-47814361D01*
X173095048Y-47814361D02*
X173095048Y-47766742D01*
X173095048Y-47766742D02*
X173142667Y-47671504D01*
X173142667Y-47671504D02*
X173237905Y-47623885D01*
X173237905Y-47623885D02*
X173380762Y-47623885D01*
X173380762Y-47623885D02*
X173476000Y-47576266D01*
X173476000Y-47576266D02*
X173523619Y-47481028D01*
X173523619Y-47481028D02*
X173523619Y-47433409D01*
X173523619Y-47433409D02*
X173476000Y-47338171D01*
X173476000Y-47338171D02*
X173380762Y-47290552D01*
X173380762Y-47290552D02*
X173237905Y-47290552D01*
X173237905Y-47290552D02*
X173142667Y-47338171D01*
X172666476Y-47957219D02*
X172666476Y-47290552D01*
X172666476Y-46957219D02*
X172714095Y-47004838D01*
X172714095Y-47004838D02*
X172666476Y-47052457D01*
X172666476Y-47052457D02*
X172618857Y-47004838D01*
X172618857Y-47004838D02*
X172666476Y-46957219D01*
X172666476Y-46957219D02*
X172666476Y-47052457D01*
X171761715Y-47290552D02*
X171761715Y-48100076D01*
X171761715Y-48100076D02*
X171809334Y-48195314D01*
X171809334Y-48195314D02*
X171856953Y-48242933D01*
X171856953Y-48242933D02*
X171952191Y-48290552D01*
X171952191Y-48290552D02*
X172095048Y-48290552D01*
X172095048Y-48290552D02*
X172190286Y-48242933D01*
X171761715Y-47909600D02*
X171856953Y-47957219D01*
X171856953Y-47957219D02*
X172047429Y-47957219D01*
X172047429Y-47957219D02*
X172142667Y-47909600D01*
X172142667Y-47909600D02*
X172190286Y-47861980D01*
X172190286Y-47861980D02*
X172237905Y-47766742D01*
X172237905Y-47766742D02*
X172237905Y-47481028D01*
X172237905Y-47481028D02*
X172190286Y-47385790D01*
X172190286Y-47385790D02*
X172142667Y-47338171D01*
X172142667Y-47338171D02*
X172047429Y-47290552D01*
X172047429Y-47290552D02*
X171856953Y-47290552D01*
X171856953Y-47290552D02*
X171761715Y-47338171D01*
X171285524Y-47290552D02*
X171285524Y-47957219D01*
X171285524Y-47385790D02*
X171237905Y-47338171D01*
X171237905Y-47338171D02*
X171142667Y-47290552D01*
X171142667Y-47290552D02*
X170999810Y-47290552D01*
X170999810Y-47290552D02*
X170904572Y-47338171D01*
X170904572Y-47338171D02*
X170856953Y-47433409D01*
X170856953Y-47433409D02*
X170856953Y-47957219D01*
X169999810Y-47909600D02*
X170095048Y-47957219D01*
X170095048Y-47957219D02*
X170285524Y-47957219D01*
X170285524Y-47957219D02*
X170380762Y-47909600D01*
X170380762Y-47909600D02*
X170428381Y-47814361D01*
X170428381Y-47814361D02*
X170428381Y-47433409D01*
X170428381Y-47433409D02*
X170380762Y-47338171D01*
X170380762Y-47338171D02*
X170285524Y-47290552D01*
X170285524Y-47290552D02*
X170095048Y-47290552D01*
X170095048Y-47290552D02*
X169999810Y-47338171D01*
X169999810Y-47338171D02*
X169952191Y-47433409D01*
X169952191Y-47433409D02*
X169952191Y-47528647D01*
X169952191Y-47528647D02*
X170428381Y-47623885D01*
X169095048Y-47957219D02*
X169095048Y-46957219D01*
X169095048Y-47909600D02*
X169190286Y-47957219D01*
X169190286Y-47957219D02*
X169380762Y-47957219D01*
X169380762Y-47957219D02*
X169476000Y-47909600D01*
X169476000Y-47909600D02*
X169523619Y-47861980D01*
X169523619Y-47861980D02*
X169571238Y-47766742D01*
X169571238Y-47766742D02*
X169571238Y-47481028D01*
X169571238Y-47481028D02*
X169523619Y-47385790D01*
X169523619Y-47385790D02*
X169476000Y-47338171D01*
X169476000Y-47338171D02*
X169380762Y-47290552D01*
X169380762Y-47290552D02*
X169190286Y-47290552D01*
X169190286Y-47290552D02*
X169095048Y-47338171D01*
X167856952Y-47957219D02*
X167856952Y-46957219D01*
X167856952Y-47338171D02*
X167761714Y-47290552D01*
X167761714Y-47290552D02*
X167571238Y-47290552D01*
X167571238Y-47290552D02*
X167476000Y-47338171D01*
X167476000Y-47338171D02*
X167428381Y-47385790D01*
X167428381Y-47385790D02*
X167380762Y-47481028D01*
X167380762Y-47481028D02*
X167380762Y-47766742D01*
X167380762Y-47766742D02*
X167428381Y-47861980D01*
X167428381Y-47861980D02*
X167476000Y-47909600D01*
X167476000Y-47909600D02*
X167571238Y-47957219D01*
X167571238Y-47957219D02*
X167761714Y-47957219D01*
X167761714Y-47957219D02*
X167856952Y-47909600D01*
X167047428Y-47290552D02*
X166809333Y-47957219D01*
X166571238Y-47290552D02*
X166809333Y-47957219D01*
X166809333Y-47957219D02*
X166904571Y-48195314D01*
X166904571Y-48195314D02*
X166952190Y-48242933D01*
X166952190Y-48242933D02*
X167047428Y-48290552D01*
X165475999Y-47671504D02*
X164999809Y-47671504D01*
X165571237Y-47957219D02*
X165237904Y-46957219D01*
X165237904Y-46957219D02*
X164904571Y-47957219D01*
X164571237Y-47861980D02*
X164523618Y-47909600D01*
X164523618Y-47909600D02*
X164571237Y-47957219D01*
X164571237Y-47957219D02*
X164618856Y-47909600D01*
X164618856Y-47909600D02*
X164571237Y-47861980D01*
X164571237Y-47861980D02*
X164571237Y-47957219D01*
X164237904Y-46957219D02*
X163666476Y-46957219D01*
X163952190Y-47957219D02*
X163952190Y-46957219D01*
X163333142Y-47861980D02*
X163285523Y-47909600D01*
X163285523Y-47909600D02*
X163333142Y-47957219D01*
X163333142Y-47957219D02*
X163380761Y-47909600D01*
X163380761Y-47909600D02*
X163333142Y-47861980D01*
X163333142Y-47861980D02*
X163333142Y-47957219D01*
X162095047Y-47576266D02*
X161333143Y-47576266D01*
X160095047Y-47957219D02*
X160095047Y-46957219D01*
X160095047Y-46957219D02*
X159856952Y-46957219D01*
X159856952Y-46957219D02*
X159714095Y-47004838D01*
X159714095Y-47004838D02*
X159618857Y-47100076D01*
X159618857Y-47100076D02*
X159571238Y-47195314D01*
X159571238Y-47195314D02*
X159523619Y-47385790D01*
X159523619Y-47385790D02*
X159523619Y-47528647D01*
X159523619Y-47528647D02*
X159571238Y-47719123D01*
X159571238Y-47719123D02*
X159618857Y-47814361D01*
X159618857Y-47814361D02*
X159714095Y-47909600D01*
X159714095Y-47909600D02*
X159856952Y-47957219D01*
X159856952Y-47957219D02*
X160095047Y-47957219D01*
X158666476Y-47957219D02*
X158666476Y-47433409D01*
X158666476Y-47433409D02*
X158714095Y-47338171D01*
X158714095Y-47338171D02*
X158809333Y-47290552D01*
X158809333Y-47290552D02*
X158999809Y-47290552D01*
X158999809Y-47290552D02*
X159095047Y-47338171D01*
X158666476Y-47909600D02*
X158761714Y-47957219D01*
X158761714Y-47957219D02*
X158999809Y-47957219D01*
X158999809Y-47957219D02*
X159095047Y-47909600D01*
X159095047Y-47909600D02*
X159142666Y-47814361D01*
X159142666Y-47814361D02*
X159142666Y-47719123D01*
X159142666Y-47719123D02*
X159095047Y-47623885D01*
X159095047Y-47623885D02*
X158999809Y-47576266D01*
X158999809Y-47576266D02*
X158761714Y-47576266D01*
X158761714Y-47576266D02*
X158666476Y-47528647D01*
X158333142Y-47290552D02*
X157952190Y-47290552D01*
X158190285Y-46957219D02*
X158190285Y-47814361D01*
X158190285Y-47814361D02*
X158142666Y-47909600D01*
X158142666Y-47909600D02*
X158047428Y-47957219D01*
X158047428Y-47957219D02*
X157952190Y-47957219D01*
X157237904Y-47909600D02*
X157333142Y-47957219D01*
X157333142Y-47957219D02*
X157523618Y-47957219D01*
X157523618Y-47957219D02*
X157618856Y-47909600D01*
X157618856Y-47909600D02*
X157666475Y-47814361D01*
X157666475Y-47814361D02*
X157666475Y-47433409D01*
X157666475Y-47433409D02*
X157618856Y-47338171D01*
X157618856Y-47338171D02*
X157523618Y-47290552D01*
X157523618Y-47290552D02*
X157333142Y-47290552D01*
X157333142Y-47290552D02*
X157237904Y-47338171D01*
X157237904Y-47338171D02*
X157190285Y-47433409D01*
X157190285Y-47433409D02*
X157190285Y-47528647D01*
X157190285Y-47528647D02*
X157666475Y-47623885D01*
X156761713Y-47861980D02*
X156714094Y-47909600D01*
X156714094Y-47909600D02*
X156761713Y-47957219D01*
X156761713Y-47957219D02*
X156809332Y-47909600D01*
X156809332Y-47909600D02*
X156761713Y-47861980D01*
X156761713Y-47861980D02*
X156761713Y-47957219D01*
X156761713Y-47338171D02*
X156714094Y-47385790D01*
X156714094Y-47385790D02*
X156761713Y-47433409D01*
X156761713Y-47433409D02*
X156809332Y-47385790D01*
X156809332Y-47385790D02*
X156761713Y-47338171D01*
X156761713Y-47338171D02*
X156761713Y-47433409D01*
X155761714Y-47957219D02*
X156333142Y-47957219D01*
X156047428Y-47957219D02*
X156047428Y-46957219D01*
X156047428Y-46957219D02*
X156142666Y-47100076D01*
X156142666Y-47100076D02*
X156237904Y-47195314D01*
X156237904Y-47195314D02*
X156333142Y-47242933D01*
X154809333Y-47957219D02*
X155380761Y-47957219D01*
X155095047Y-47957219D02*
X155095047Y-46957219D01*
X155095047Y-46957219D02*
X155190285Y-47100076D01*
X155190285Y-47100076D02*
X155285523Y-47195314D01*
X155285523Y-47195314D02*
X155380761Y-47242933D01*
X154618857Y-48052457D02*
X153856952Y-48052457D01*
X153095047Y-47957219D02*
X153666475Y-47957219D01*
X153380761Y-47957219D02*
X153380761Y-46957219D01*
X153380761Y-46957219D02*
X153475999Y-47100076D01*
X153475999Y-47100076D02*
X153571237Y-47195314D01*
X153571237Y-47195314D02*
X153666475Y-47242933D01*
X152142666Y-47957219D02*
X152714094Y-47957219D01*
X152428380Y-47957219D02*
X152428380Y-46957219D01*
X152428380Y-46957219D02*
X152523618Y-47100076D01*
X152523618Y-47100076D02*
X152618856Y-47195314D01*
X152618856Y-47195314D02*
X152714094Y-47242933D01*
X151952190Y-48052457D02*
X151190285Y-48052457D01*
X150999808Y-47052457D02*
X150952189Y-47004838D01*
X150952189Y-47004838D02*
X150856951Y-46957219D01*
X150856951Y-46957219D02*
X150618856Y-46957219D01*
X150618856Y-46957219D02*
X150523618Y-47004838D01*
X150523618Y-47004838D02*
X150475999Y-47052457D01*
X150475999Y-47052457D02*
X150428380Y-47147695D01*
X150428380Y-47147695D02*
X150428380Y-47242933D01*
X150428380Y-47242933D02*
X150475999Y-47385790D01*
X150475999Y-47385790D02*
X151047427Y-47957219D01*
X151047427Y-47957219D02*
X150428380Y-47957219D01*
X149809332Y-46957219D02*
X149714094Y-46957219D01*
X149714094Y-46957219D02*
X149618856Y-47004838D01*
X149618856Y-47004838D02*
X149571237Y-47052457D01*
X149571237Y-47052457D02*
X149523618Y-47147695D01*
X149523618Y-47147695D02*
X149475999Y-47338171D01*
X149475999Y-47338171D02*
X149475999Y-47576266D01*
X149475999Y-47576266D02*
X149523618Y-47766742D01*
X149523618Y-47766742D02*
X149571237Y-47861980D01*
X149571237Y-47861980D02*
X149618856Y-47909600D01*
X149618856Y-47909600D02*
X149714094Y-47957219D01*
X149714094Y-47957219D02*
X149809332Y-47957219D01*
X149809332Y-47957219D02*
X149904570Y-47909600D01*
X149904570Y-47909600D02*
X149952189Y-47861980D01*
X149952189Y-47861980D02*
X149999808Y-47766742D01*
X149999808Y-47766742D02*
X150047427Y-47576266D01*
X150047427Y-47576266D02*
X150047427Y-47338171D01*
X150047427Y-47338171D02*
X149999808Y-47147695D01*
X149999808Y-47147695D02*
X149952189Y-47052457D01*
X149952189Y-47052457D02*
X149904570Y-47004838D01*
X149904570Y-47004838D02*
X149809332Y-46957219D01*
X149095046Y-47052457D02*
X149047427Y-47004838D01*
X149047427Y-47004838D02*
X148952189Y-46957219D01*
X148952189Y-46957219D02*
X148714094Y-46957219D01*
X148714094Y-46957219D02*
X148618856Y-47004838D01*
X148618856Y-47004838D02*
X148571237Y-47052457D01*
X148571237Y-47052457D02*
X148523618Y-47147695D01*
X148523618Y-47147695D02*
X148523618Y-47242933D01*
X148523618Y-47242933D02*
X148571237Y-47385790D01*
X148571237Y-47385790D02*
X149142665Y-47957219D01*
X149142665Y-47957219D02*
X148523618Y-47957219D01*
X148190284Y-46957219D02*
X147571237Y-46957219D01*
X147571237Y-46957219D02*
X147904570Y-47338171D01*
X147904570Y-47338171D02*
X147761713Y-47338171D01*
X147761713Y-47338171D02*
X147666475Y-47385790D01*
X147666475Y-47385790D02*
X147618856Y-47433409D01*
X147618856Y-47433409D02*
X147571237Y-47528647D01*
X147571237Y-47528647D02*
X147571237Y-47766742D01*
X147571237Y-47766742D02*
X147618856Y-47861980D01*
X147618856Y-47861980D02*
X147666475Y-47909600D01*
X147666475Y-47909600D02*
X147761713Y-47957219D01*
X147761713Y-47957219D02*
X148047427Y-47957219D01*
X148047427Y-47957219D02*
X148142665Y-47909600D01*
X148142665Y-47909600D02*
X148190284Y-47861980D01*
%LPC*%
D11*
X186826000Y-63540000D03*
D12*
X156786000Y-102790000D03*
D13*
X149166000Y-102790000D03*
D14*
X139296000Y-52600000D03*
D15*
X187026000Y-70390000D03*
D11*
X167547777Y-79909180D03*
D16*
X167547777Y-72289180D03*
D17*
X158656000Y-68110000D03*
D16*
X161196000Y-68110000D03*
X163736000Y-68110000D03*
D17*
X147826000Y-95740000D03*
D11*
X147826000Y-98240000D03*
X145397777Y-105089180D03*
D16*
X145397777Y-112709180D03*
D12*
X156636000Y-107490000D03*
D13*
X149016000Y-107490000D03*
D12*
X163786000Y-72840000D03*
D13*
X156166000Y-72840000D03*
D11*
X169416000Y-94390000D03*
D16*
X177036000Y-94390000D03*
D11*
X181376000Y-108140000D03*
D18*
X152776000Y-94040000D03*
X155276000Y-94040000D03*
D11*
X182726000Y-59540000D03*
D15*
X135597777Y-79939180D03*
D11*
X149826000Y-112190000D03*
X152326000Y-112190000D03*
X177136000Y-99140000D03*
D16*
X169516000Y-99140000D03*
D19*
X138457777Y-86969180D03*
D20*
X138457777Y-92049180D03*
X138457777Y-97129180D03*
X138457777Y-102209180D03*
D12*
X139666000Y-81209180D03*
D13*
X147286000Y-81209180D03*
D11*
X185826000Y-96990000D03*
X185876000Y-103240000D03*
X172376000Y-108330000D03*
D16*
X172376000Y-115950000D03*
D21*
X139107777Y-107334180D03*
D11*
X139107777Y-109874180D03*
X161426000Y-91500000D03*
D16*
X161426000Y-83880000D03*
D17*
X177451000Y-67945000D03*
D16*
X177451000Y-73025000D03*
X182531000Y-73025000D03*
X182531000Y-67945000D03*
D18*
X152726000Y-89640000D03*
X155226000Y-89640000D03*
D14*
X183186000Y-52600000D03*
D11*
X154137777Y-68329180D03*
D16*
X146517777Y-68329180D03*
D11*
X163426000Y-102640000D03*
X160926000Y-102640000D03*
D22*
X157947777Y-79209180D03*
D23*
X159217777Y-79209180D03*
X160487777Y-79209180D03*
D11*
X185926000Y-108140000D03*
D17*
X150126000Y-73240000D03*
D11*
X150126000Y-75740000D03*
D14*
X139026000Y-116590000D03*
D11*
X181476000Y-102990000D03*
X177086000Y-103290000D03*
D16*
X169466000Y-103290000D03*
D19*
X137825277Y-64236680D03*
D20*
X137825277Y-69316680D03*
D24*
X178313246Y-84940000D03*
D25*
X185813246Y-84940000D03*
D11*
X168646000Y-108240000D03*
D16*
X168646000Y-115860000D03*
D11*
X186967777Y-75019180D03*
X176286000Y-108330000D03*
D16*
X176286000Y-115950000D03*
D12*
X141907777Y-59079180D03*
D13*
X134287777Y-59079180D03*
D26*
X147296000Y-116840000D03*
X149836000Y-116840000D03*
X152376000Y-116840000D03*
D15*
X135626000Y-74890000D03*
D27*
X162966000Y-96620000D03*
D28*
X162966000Y-97890000D03*
X162966000Y-99160000D03*
D11*
X171247777Y-79909180D03*
D16*
X171247777Y-72289180D03*
D14*
X183026000Y-116590000D03*
D26*
X164016000Y-116840000D03*
X161476000Y-116840000D03*
X158936000Y-116840000D03*
D15*
X186876000Y-59440000D03*
D11*
X166426000Y-91500000D03*
D16*
X166426000Y-83880000D03*
D11*
X139637777Y-74749180D03*
%LPD*%
M02*
